<svg width="170" height="26" viewBox="0 0 170 26" xmlns="http://www.w3.org/2000/svg" xmlns:xlink="http://www.w3.org/1999/xlink">
    <path d="M15.81,4.47h4.87V25.1h-4.87V11.28L5.3,25.1H0.43V4.47H5.3v13.87L15.81,4.47z M45.37,20.53h3.6v4.57H23.38v-4.57h0.51 c0.34,0,0.68-0.01,1.02-0.04c0.36-0.05,0.71-0.18,1.02-0.37c0.34-0.22,0.62-0.57,0.85-1.04c0.23-0.5,0.37-1.18,0.42-2.03 c0.03-0.75,0.05-1.49,0.04-2.24c0.03-1,0.04-2.09,0.04-3.28c0.03-1.19,0.04-2.41,0.04-3.65c0.03-1.27,0.04-2.41,0.04-3.4h18.01 V20.53z M40.49,20.53V9.07h-8.47l-0.08,4.11c0,1.36-0.03,2.51-0.08,3.45c-0.05,0.74-0.13,1.47-0.25,2.2 c-0.1,0.58-0.24,1.15-0.42,1.7H40.49z M67.48,4.47h4.83V25.1h-4.83v-2.99h-0.21c-0.71,1.05-1.67,1.91-2.88,2.57 c-1.19,0.66-2.61,1-4.28,1c-1.47,0.03-2.84-0.22-4.11-0.75c-1.24-0.5-2.36-1.25-3.3-2.2c-0.93-0.97-1.67-2.13-2.2-3.49 c-0.51-1.36-0.76-2.84-0.76-4.44s0.25-3.07,0.76-4.4c0.51-1.36,1.21-2.52,2.12-3.49c0.93-0.97,2.06-1.73,3.3-2.24 c1.27-0.53,2.67-0.79,4.19-0.79c1.64,0.03,3.06,0.36,4.28,1c1.21,0.64,2.18,1.45,2.88,2.45h0.21V4.47L67.48,4.47z M61.08,21.11 c0.96,0,1.82-0.17,2.58-0.5c0.76-0.31,1.43-0.77,1.99-1.37c0.57-0.59,1.01-1.28,1.31-2.03c0.31-0.78,0.47-1.61,0.47-2.45 c0-0.89-0.16-1.71-0.47-2.49c-0.29-0.75-0.74-1.43-1.31-1.99c-0.56-0.6-1.24-1.06-1.99-1.37c-0.76-0.33-1.62-0.5-2.58-0.5 c-0.96,0-1.84,0.17-2.63,0.5c-0.79,0.33-1.47,0.79-2.03,1.37c-0.57,0.56-1.02,1.24-1.31,1.99c-0.31,0.79-0.47,1.64-0.47,2.49 c0,0.89,0.16,1.72,0.47,2.49c0.3,0.76,0.75,1.45,1.31,2.03c0.59,0.57,1.28,1.02,2.03,1.33C59.25,20.95,60.12,21.11,61.08,21.11z  M97.18,25.1h-4.87V9.07h-8.6c0,1.44-0.01,2.89-0.04,4.36c-0.02,1.22-0.06,2.44-0.13,3.65c-0.11,2.02-0.44,3.58-0.97,4.69 c-0.54,1.11-1.19,1.92-1.95,2.45c-0.7,0.49-1.52,0.79-2.37,0.87c-0.82,0.08-1.57,0.12-2.25,0.12h-0.89v-4.73h0.47 c0.34,0,0.68-0.01,1.02-0.04c0.37-0.06,0.71-0.2,1.02-0.41c0.31-0.22,0.58-0.57,0.81-1.04c0.23-0.47,0.37-1.15,0.42-2.03 c0.06-0.5,0.08-1.23,0.08-2.2c0.03-1,0.04-2.09,0.04-3.28c0.03-1.19,0.04-2.41,0.04-3.65V4.47h18.18L97.18,25.1z M118.01,4.47h4.83 V25.1h-4.83v-2.99h-0.21c-0.71,1.05-1.67,1.91-2.88,2.57c-1.19,0.66-2.61,1-4.28,1c-1.47,0.03-2.84-0.22-4.11-0.75 c-1.24-0.5-2.36-1.25-3.3-2.2c-0.93-0.97-1.67-2.13-2.2-3.49c-0.51-1.36-0.76-2.84-0.76-4.44s0.25-3.07,0.76-4.4 c0.51-1.36,1.21-2.52,2.12-3.49c0.93-0.97,2.06-1.73,3.3-2.24c1.27-0.53,2.67-0.79,4.19-0.79c1.64,0.03,3.07,0.36,4.28,1 c1.21,0.64,2.18,1.45,2.88,2.45h0.21V4.47L118.01,4.47z M111.61,21.11c0.96,0,1.82-0.17,2.58-0.5c0.75-0.31,1.43-0.77,1.99-1.37 c0.57-0.59,1.01-1.28,1.31-2.03c0.31-0.78,0.47-1.61,0.47-2.45c0-0.89-0.16-1.71-0.47-2.49c-0.29-0.75-0.74-1.43-1.31-1.99 c-0.56-0.6-1.24-1.06-1.99-1.37c-0.76-0.33-1.62-0.5-2.58-0.5s-1.84,0.17-2.63,0.5c-0.76,0.31-1.46,0.78-2.03,1.37 c-0.57,0.56-1.02,1.24-1.31,1.99c-0.31,0.79-0.47,1.64-0.47,2.49c0,0.89,0.16,1.72,0.47,2.49c0.31,0.78,0.75,1.45,1.31,2.03 c0.59,0.57,1.28,1.02,2.03,1.33C109.78,20.95,110.65,21.11,111.61,21.11z M142.75,4.47h4.87V25.1h-4.87V11.28L132.24,25.1h-4.87 V4.47h4.87v13.87L142.75,4.47z M169.35,9.07h-7.16V25.1h-4.87V9.07h-7.2V4.47h19.23V9.07z"></path>
    <path d="M134.86,0h4.87v4.47h-4.87V0z"></path>
</svg>