<svg xmlns="http://www.w3.org/2000/svg" fill="none" viewBox="0 0 132 20"><path fill="#F15044" fill-rule="evenodd" d="M120.52 10.16V.33h-5.02V20h5.02v-3.59l6.46-6.83V20H132V.33h-5.02V3.3l-6.46 6.87ZM95.68 20h4.75v-8.95c2.16-.12 2.56.9 3.82 3.57 1.11 2.32 2.15 4.88 5.32 4.88.54 0 .9-.08 1.63-.35v-4.07c-1.44-.12-1.28-.74-2.35-2.56-1.49-2.68-2.4-3.38-3.39-3.53a4.76 4.76 0 0 0 2.81-2.18c.77-1.15 1.34-2.24 2.58-2.24.15 0-.37 0 .34.04V.38c-.71-.27-.87-.38-1.7-.38-2.83 0-4.35 1.87-6 4.54-.84 1.36-1.62 2.56-3.05 2.44V.33H95.4v6.65c-1.43.12-1.93-1.1-2.76-2.44C91 1.86 89.49 0 86.66 0c-.84 0-1.29.11-2 .38v4.24c0-.04.5-.04.66-.04 1.22 0 2 1.09 2.78 2.25.5.73 1.17 1.7 2.76 2.17-.99.16-2.4.86-3.88 3.53-1.06 1.82-.9 2.45-3.05 2.56v4.07c.72.27 1.7.35 2.23.35 3.17 0 4.53-2.56 5.64-4.88 1.26-2.69.74-3.7 3.61-3.57V20h.27ZM51.65 4.7V20h5.02V4.7h5.03V.33H47.35V4.7h4.3ZM28.54 16.02c2.3 2.37 4.35 3.5 7.53 3.5 4.62 0 9.81-2.49 9.81-10.01 0-7.88-5.84-9.5-9.62-9.5-1.57 0-4.47.58-7.11 2.86l2.83 3.1a5.45 5.45 0 0 1 4.13-1.9c3.28 0 3.62 2.72 3.66 4l-6.05-.35v4.2l6.05-.36c-.08 1.09-.48 3.88-3.72 3.88a5.84 5.84 0 0 1-4.64-2.4l-2.88 2.98ZM67.4 6.09a10.16 10.16 0 0 1 5.27-1.83c2.22 0 2.75.7 2.71 2.88-6.26.15-10.77 1.82-10.77 6.98 0 2.75 1.68 5.4 6.2 5.4a9 9 0 0 0 6-2.1c1.15 1.98 2.62 2.1 3.57 2.1.69 0 1.4-.12 1.4-.36V15.1c-1.43.12-1.43-1.13-1.43-2.83V6.63c0-2.1-.3-6.63-7.25-6.63-1.22 0-4.45.11-7.9 2.6l2.2 3.49Zm7.93 4.74v2.95c-1.44.7-2.3 1.47-3.34 1.47-1.1 0-2.08-.46-2.08-1.6 0-1.82 1.83-2.86 5.42-2.82ZM13.27 20H0L1.66 7 12.8 0l9.74 11.82.08.48-9.79-11.1.03 1.3 9.84 10.3.08.5-9.89-9.5.03 1.41 9.9 8.64.09.5-9.95-7.86.03 1.33 10.03 7.09.08.5-10.08-6.3.03 1.22 10.08 5.53.08.5-10.12-4.75.03 1.33 10.23 3.98.08.5-10.27-3.2.03 1.42L23.52 18l.08.5-10.37-1.57.03 1.3 10.41.78.08.74-10.48.26Z" clip-rule="evenodd"/></svg>