<svg width="192" height="93" viewBox="0 0 192 93" fill="none" xmlns="http://www.w3.org/2000/svg">
    <path d="M66.9908 32.4091H75.6982L83.0845 50.4205H83.4254L90.8118 32.4091H99.5192V61.5H92.6726V43.6307H92.4311L85.4425 61.3153H81.0675L74.0788 43.5312H73.8374V61.5H66.9908V32.4091ZM103.848 61.5V56.4432L114.459 47.1534C115.254 46.4337 115.931 45.7756 116.49 45.179C117.049 44.5729 117.475 43.9669 117.768 43.3608C118.062 42.7453 118.209 42.0777 118.209 41.358C118.209 40.553 118.034 39.8665 117.683 39.2983C117.333 38.7206 116.85 38.2756 116.234 37.9631C115.619 37.6506 114.913 37.4943 114.118 37.4943C113.313 37.4943 112.607 37.66 112.001 37.9915C111.395 38.3134 110.922 38.7822 110.581 39.3977C110.25 40.0133 110.084 40.7614 110.084 41.642H103.422C103.422 39.6629 103.867 37.9536 104.757 36.5142C105.647 35.0748 106.897 33.9669 108.507 33.1903C110.126 32.4044 112.006 32.0114 114.146 32.0114C116.353 32.0114 118.27 32.3807 119.899 33.1193C121.528 33.858 122.787 34.8902 123.678 36.2159C124.577 37.5322 125.027 39.0616 125.027 40.804C125.027 41.9119 124.804 43.0104 124.359 44.0994C123.914 45.1884 123.114 46.3911 121.959 47.7074C120.813 49.0237 119.184 50.6004 117.072 52.4375L113.592 55.6477V55.8324H125.382V61.5H103.848Z" fill="black"/>
</svg>
